<?xml version="1.0" encoding="UTF-8"?>
<svg xmlns="http://www.w3.org/2000/svg" viewBox="0 0 1342 186">
  <g fill="#fff" stroke="#002137" stroke-linejoin="round" stroke-width="2">
    <!-- Shape -->
    <polygon points="41 183 41 137 1 113 1 159 41 183"/>
    <polygon points="91 95 91 49 51 25 51 71 91 95"/>
    <polygon points="81 113 41 89 1 113 41 137 81 113"/>
    <polygon points="91 153 91 107 131 83 131 129 91 153"/>
    <polygon points="131 25 91 1 51 25 91 49 131 25"/>
    <polygon points="91 95 91 49 131 25 131 71 91 95"/>
    <polygon points="91 153 131 129 171 153 131 177 91 153"/>
    <polygon points="41 183 81 159 81 113 41 137 41 183"/>
    <polygon points="171 153 171 107 131 83 131 129 171 153"/>
    <polygon points="41 31 1 55 1 101 41 125 81 101 81 55 41 31"/>
    <!-- Text -->
    <path d="m290,29h-90v120h30v-30h60v30h30v-30l-9-15,9-15v-51l-15-9h-15Zm0,60h-60v-30h60v30Z"/>
    <path d="m440,29h-75l-15,9v111h30v-30h60v30h30V38l-15-9h-15Zm0,60h-60v-30h60v30Z"/>
    <path d="m590,29h-90v120h105l15-9V38l-15-9h-15Zm0,60v30h-60v-60h60v30Z"/>
    <path d="m740,29h-75l-15,9v111h30v-30h60v30h30V38l-15-9h-15Zm0,60h-60v-30h60v30Z"/>
    <path d="m890,29h-90v120h30v-30h75l15-9V38l-15-9h-15Zm0,60h-60v-30h60v30Z"/>
    <polygon points="1025 29 995 29 965 29 950 29 935 38 935 59 965 59 980 59 980 89 980 119 980 149 1010 149 1010 119 1010 89 1010 59 1025 59 1055 59 1055 29 1040 29 1025 29"/>
    <path d="m1160,29h-75l-15,9v102l15,9h90l15-9V38l-15-9h-15Zm0,60v30h-60v-60h60v30Z"/>
    <path d="m1325,29h-105v120h30v-30h60v30h30v-30l-9-15,9-15v-51l-15-9Zm-15,60h-60v-30h60v30Z"/>
  </g>
</svg>
